<?xml version="1.0" encoding="utf-8"?>
<!-- Generator: Adobe Illustrator 25.2.3, SVG Export Plug-In . SVG Version: 6.00 Build 0)  -->
<svg version="1.1" id="Layer_1" xmlns="http://www.w3.org/2000/svg" xmlns:xlink="http://www.w3.org/1999/xlink" x="0px" y="0px"
	 viewBox="0 0 250 250" style="enable-background:new 0 0 250 250;" xml:space="preserve">
<style type="text/css">
	.st0{fill:#DD0031;}
	.st1{fill:#C3002F;}
	.st2{fill:#FFFFFF;}
	.st3{fill:#518FF5;}
	.st4{fill:#A6C5FA;}
	.st5{fill-rule:evenodd;clip-rule:evenodd;fill:#F9F9F9;}
</style>
<g>
	<polygon class="st0" points="125,30 125,30 125,30 31.9,63.2 46.1,186.3 125,230 125,230 125,230 203.9,186.3 218.1,63.2 	"/>
	<polygon class="st1" points="125,30 125,52.2 125,52.1 125,153.4 125,153.4 125,230 125,230 203.9,186.3 218.1,63.2 	"/>
	<path class="st2" d="M125,52.1L66.8,182.6l0,0h21.7l0,0l11.7-29.2h49.4l11.7,29.2l0,0H183l0,0L125,52.1L125,52.1L125,52.1L125,52.1
		L125,52.1z M142,135.4h-34l17-40.9L142,135.4z"/>
</g>
<g id="layer1" transform="translate(0,-1020.3621)">
	<g id="g7362">
		<path id="path4994" class="st3" d="M227.9,1188v60.4c0,2.7-2.1,4.9-4.7,4.9h-50c-2.6,0-4.7-2.2-4.7-4.9v-71.9
			c0-2.7,2.1-4.9,4.7-4.9h39.1"/>
		<path id="path5085" class="st4" d="M212.3,1171.7v11.4c0,2.7,2.1,4.9,4.7,4.9h10.9L212.3,1171.7z"/>
		<path id="path5089" class="st5" d="M181,1206c-0.9,0-1.6,0.7-1.6,1.6c0,0.9,0.7,1.6,1.5,1.7c0,0,0,0,0,0h20.7h13.7
			c0.9,0,1.6-0.7,1.6-1.6s-0.7-1.6-1.5-1.7c0,0,0,0,0,0h-13.7C201.7,1206,181,1206,181,1206z"/>
		<path id="path5092" class="st5" d="M181,1212.5c-0.9,0-1.6,0.7-1.6,1.6c0,0.9,0.7,1.6,1.5,1.7c0,0,0,0,0,0h20.7h13.7
			c0.9,0,1.6-0.7,1.6-1.6s-0.7-1.6-1.5-1.7c0,0,0,0,0,0h-13.7C201.7,1212.5,181,1212.5,181,1212.5z"/>
		<path id="path5094" class="st5" d="M181,1225.6c-0.9,0-1.6,0.7-1.6,1.6c0,0.9,0.7,1.6,1.5,1.7c0,0,0,0,0,0h13.7h8.2
			c0.9,0,1.6-0.7,1.6-1.6c0-0.9-0.7-1.6-1.5-1.7c0,0,0,0,0,0h-8.2C194.7,1225.6,181,1225.6,181,1225.6z M209.1,1225.6
			c-0.9,0-1.6,0.7-1.6,1.6c0,0.9,0.7,1.6,1.5,1.7c0,0,0,0,0,0c0.9,0,1.6-0.7,1.6-1.6S210,1225.6,209.1,1225.6
			C209.2,1225.6,209.2,1225.6,209.1,1225.6z"/>
		<path id="path5096" class="st5" d="M181,1219.1c-0.9,0-1.6,0.7-1.6,1.6c0,0.9,0.7,1.6,1.5,1.7c0,0,0,0,0,0h20.7h13.7
			c0.9,0,1.6-0.7,1.6-1.6s-0.7-1.6-1.5-1.7c0,0,0,0,0,0h-13.7C201.7,1219.1,181,1219.1,181,1219.1z"/>
	</g>
</g>
</svg>
